<svg xmlns="http://www.w3.org/2000/svg" width="16" height="16"><path d="M8.492 4A.5.5 0 0 0 8 4.508v.54c-.964.211-1.748.91-1.748 1.893 0 1.163 1.04 2.055 2.248 2.055.73 0 1.248.496 1.248 1.055 0 .559-.518 1.053-1.248 1.053s-1.248-.494-1.248-1.053c.01-.676-1.01-.676-1 0 0 .984.783 1.684 1.748 1.894v.55c-.01.675 1.01.675 1 0v-.446c.98-.206 1.769-.999 1.748-1.996 0-1.332-.858-2.055-2.248-2.055-.73 0-1.248-.496-1.248-1.055 0-.551.506-1.035 1.22-1.048a.5.5 0 0 0 .057.001c.714.015 1.219.496 1.219 1.047-.01.677 1.01.677 1 0 0-.998-.768-1.792-1.748-1.998v-.437A.5.5 0 0 0 8.492 4Z" color="#000" font-family="sans-serif" font-weight="400" overflow="visible" style="line-height:normal;text-indent:0;text-align:start;text-decoration-line:none;text-decoration-style:solid;text-decoration-color:#000;text-transform:none;block-progression:tb;white-space:normal;isolation:auto;mix-blend-mode:normal;solid-color:#000;solid-opacity:1"/></svg>